<?xml version="1.0" encoding="utf-8"?>

<!DOCTYPE svg PUBLIC "-//W3C//DTD SVG 1.0//EN" "http://www.w3.org/TR/2001/REC-SVG-20010904/DTD/svg10.dtd">
<!-- Uploaded to: SVG Repo, www.svgrepo.com, Generator: SVG Repo Mixer Tools -->
<svg version="1.0" id="Layer_1" xmlns="http://www.w3.org/2000/svg" xmlns:xlink="http://www.w3.org/1999/xlink"
     width="800px" height="800px" viewBox="0 0 64 64" enable-background="new 0 0 64 64" xml:space="preserve">
<g>
	<path fill="#506C7F" d="M18,12c0-5.522,4.478-10,10-10h8c5.522,0,10,4.478,10,10v7c0-3.313-2.687-6-6-6h-6c-2.209,0-4-1.791-4-4
		c0-0.553-0.447-1-1-1s-1,0.447-1,1c0,2.209-1.791,4-4,4c-3.313,0-6,2.687-6,6V12z"/>
    <path fill="#45AAB8" d="M62,60c0,1.104-0.896,2-2,2H4c-1.104,0-2-0.896-2-2v-8c0-1.104,0.447-2.104,1.172-2.828l-0.004-0.004
		c4.148-3.343,8.896-5.964,14.046-7.714C20.869,45.467,26.117,48,31.973,48c5.862,0,11.115-2.538,14.771-6.56
		c5.167,1.75,9.929,4.376,14.089,7.728l-0.004,0.004C61.553,49.896,62,50.896,62,52V60z"/>
    <g>
		<path fill="#F9EBB2" d="M32,42c-2.853,0-5.502-0.857-7.715-2.322c-1.675,0.283-3.325,0.638-4.934,1.097
			C22.602,43.989,27.041,46,31.973,46c4.938,0,9.383-2.017,12.634-5.238c-1.595-0.454-3.231-0.803-4.892-1.084
			C37.502,41.143,34.853,42,32,42z"/>
        <path fill="#F9EBB2" d="M46,22h-1c-0.553,0-1-0.447-1-1v-1v-1c0-2.209-1.791-4-4-4h-6c-2.088,0-3.926-1.068-5-2.687
			C27.926,13.932,26.088,15,24,15c-2.209,0-4,1.791-4,4v1v1c0,0.553-0.447,1-1,1h-1c-0.553,0-1,0.447-1,1v2c0,0.553,0.447,1,1,1h1
			c0.553,0,1,0.447,1,1v1c0,6.627,5.373,12,12,12s12-5.373,12-12v-1c0-0.553,0.447-1,1-1h1c0.553,0,1-0.447,1-1v-2
			C47,22.447,46.553,22,46,22z"/>
	</g>
    <path fill="#394240" d="M62.242,47.758l0.014-0.014c-5.847-4.753-12.84-8.137-20.491-9.722C44.374,35.479,46,31.932,46,28
		c1.657,0,3-1.343,3-3v-2c0-0.886-0.391-1.673-1-2.222V12c0-6.627-5.373-12-12-12h-8c-6.627,0-12,5.373-12,12v8.778
		c-0.609,0.549-1,1.336-1,2.222v2c0,1.657,1.343,3,3,3c0,3.932,1.626,7.479,4.236,10.022c-7.652,1.586-14.646,4.969-20.492,9.722
		l0.014,0.014C0.672,48.844,0,50.344,0,52v8c0,2.211,1.789,4,4,4h56c2.211,0,4-1.789,4-4v-8C64,50.344,63.328,48.844,62.242,47.758z
		 M18,12c0-5.522,4.478-10,10-10h8c5.522,0,10,4.478,10,10v7c0-3.313-2.687-6-6-6h-6c-2.209,0-4-1.791-4-4c0-0.553-0.447-1-1-1
		s-1,0.447-1,1c0,2.209-1.791,4-4,4c-3.313,0-6,2.687-6,6V12z M20,28v-1c0-0.553-0.447-1-1-1h-1c-0.553,0-1-0.447-1-1v-2
		c0-0.553,0.447-1,1-1h1c0.553,0,1-0.447,1-1v-2c0-2.209,1.791-4,4-4c2.088,0,3.926-1.068,5-2.687C30.074,13.932,31.912,15,34,15h6
		c2.209,0,4,1.791,4,4v2c0,0.553,0.447,1,1,1h1c0.553,0,1,0.447,1,1v2c0,0.553-0.447,1-1,1h-1c-0.553,0-1,0.447-1,1v1
		c0,6.627-5.373,12-12,12S20,34.627,20,28z M24.285,39.678C26.498,41.143,29.147,42,32,42s5.502-0.857,7.715-2.322
		c1.66,0.281,3.297,0.63,4.892,1.084C41.355,43.983,36.911,46,31.973,46c-4.932,0-9.371-2.011-12.621-5.226
		C20.96,40.315,22.61,39.961,24.285,39.678z M62,60c0,1.104-0.896,2-2,2H4c-1.104,0-2-0.896-2-2v-8c0-1.104,0.447-2.104,1.172-2.828
		l-0.004-0.004c4.148-3.343,8.896-5.964,14.046-7.714C20.869,45.467,26.117,48,31.973,48c5.862,0,11.115-2.538,14.771-6.56
		c5.167,1.75,9.929,4.376,14.089,7.728l-0.004,0.004C61.553,49.896,62,50.896,62,52V60z"/>
    <path fill="#394240" d="M24.537,21.862c0.475,0.255,1.073,0.068,1.345-0.396C25.91,21.419,26.18,21,26.998,21
		c0.808,0,1.096,0.436,1.111,0.458C28.287,21.803,28.637,22,28.999,22c0.154,0,0.311-0.035,0.457-0.111
		c0.491-0.253,0.684-0.856,0.431-1.347C29.592,19.969,28.651,19,26.998,19c-1.691,0-2.618,0.983-2.9,1.564
		C23.864,21.047,24.063,21.609,24.537,21.862z"/>
    <path fill="#394240" d="M34.539,21.862c0.475,0.255,1.073,0.068,1.345-0.396C35.912,21.419,36.182,21,37,21
		c0.808,0,1.096,0.436,1.111,0.458C38.289,21.803,38.639,22,39.001,22c0.154,0,0.311-0.035,0.457-0.111
		c0.491-0.253,0.684-0.856,0.431-1.347C39.594,19.969,38.653,19,37,19c-1.691,0-2.618,0.983-2.9,1.564
		C33.866,21.047,34.065,21.609,34.539,21.862z"/>
</g>
    <path d="M9.73795 18.8436L12.9511 20.6987L6.42625 32L4.55349 27.8233L9.73795 18.8436Z" fill="#CE4444"/>
    <path d="M9.73795 18.8436L6.52483 16.9885L0 28.2898L4.55349 27.8233L9.73795 18.8436Z" fill="#983535"/>
    <path d="M14.322 18.8436L11.1088 20.6987L17.6337 32L19.5064 27.8233L14.322 18.8436Z" fill="#983535"/>
    <path d="M14.322 18.8436L17.5351 16.9885L24.0599 28.2898L19.5064 27.8233L14.322 18.8436Z" fill="#CE4444"/>
    <path d="M22.9936 11.0622C22.9936 17.1716 18.0409 22.1243 11.9314 22.1243C5.82194 22.1243 0.869249 17.1716 0.869249 11.0622C0.869249 4.9527 5.82194 0 11.9314 0C18.0409 0 22.9936 4.9527 22.9936 11.0622Z"
          fill="url(#paint0_linear_103_1801)"/>
    <path d="M20.5665 11.0621C20.5665 15.8311 16.7004 19.6972 11.9315 19.6972C7.16247 19.6972 3.29645 15.8311 3.29645 11.0621C3.29645 6.29315 7.16247 2.42713 11.9315 2.42713C16.7004 2.42713 20.5665 6.29315 20.5665 11.0621Z"
          fill="#A88300"/>
    <path d="M21.0477 11.984C21.0477 16.7641 17.1727 20.6391 12.3926 20.6391C7.61251 20.6391 3.73748 16.7641 3.73748 11.984C3.73748 7.20389 7.61251 3.32887 12.3926 3.32887C17.1727 3.32887 21.0477 7.20389 21.0477 11.984Z"
          fill="#C28B37"/>
    <path d="M20.5868 11.0621C20.5868 15.8422 16.7118 19.7172 11.9317 19.7172C7.15159 19.7172 3.27656 15.8422 3.27656 11.0621C3.27656 6.28205 7.15159 2.40702 11.9317 2.40702C16.7118 2.40702 20.5868 6.28205 20.5868 11.0621Z"
          fill="#C09525"/>
    <path d="M11.9781 5.04096L13.8451 8.77502L17.5792 9.24178L15.0151 12.117L15.7122 16.2431L11.9781 14.3761L8.24404 16.2431L8.94729 12.117L6.37701 9.24178L10.1111 8.77502L11.9781 5.04096Z"
          fill="url(#paint1_linear_103_1801)"/>
    <defs>
<linearGradient id="paint0_linear_103_1801" x1="11.1804" y1="4.03192" x2="12.6813" y2="31.965"
                gradientUnits="userSpaceOnUse">
<stop stop-color="#FFC600"/>
    <stop offset="1" stop-color="#FFDE69"/>
</linearGradient>
        <linearGradient id="paint1_linear_103_1801" x1="11.9783" y1="5.04096" x2="11.9783" y2="16.2431"
                        gradientUnits="userSpaceOnUse">
<stop stop-color="#FFFCDD"/>
            <stop offset="1" stop-color="#FFE896"/>
</linearGradient>
</defs>

</svg>